<svg version="1.1" xmlns="http://www.w3.org/2000/svg" xmlns:xlink="http://www.w3.org/1999/xlink" width="28.26108" height="29.82234" viewBox="0,0,28.26108,29.82234"><g transform="translate(-296.89366,-120.58563)"><g data-paper-data="{&quot;isPaintingLayer&quot;:true}" fill-rule="nonzero" stroke-linecap="butt" stroke-linejoin="miter" stroke-miterlimit="10" stroke-dasharray="" stroke-dashoffset="0" style="mix-blend-mode: normal"><path d="M297.17501,149.20168v-28h27.375v28z" fill="#ffffff" stroke="none" stroke-width="2.5"/><g fill="#000000" stroke="none" stroke-width="0"><path d="M312.99924,134.72869c0,0.93284 -0.75621,1.68905 -1.68904,1.68905c-0.93284,0 -1.68905,-0.75621 -1.68905,-1.68905c0,-0.93284 0.75621,-1.68905 1.68905,-1.68905c0.93284,0 1.68904,0.75621 1.68904,1.68905z"/><path d="M309.84635,142.2731v-6.98139h3.15289v6.98139z"/><path d="M309.84635,142.72351c0,-0.74627 0.75621,-1.35124 1.68905,-1.35124c0.93284,0 1.68905,0.60497 1.68905,1.35124c0,0.74627 -0.75621,1.35124 -1.68905,1.35124c-0.93284,0 -1.68905,-0.60497 -1.68905,-1.35124z"/><path d="M313.44965,128.64812c0,1.30597 -1.00828,2.36467 -2.25206,2.36467c-1.24378,0 -2.25207,-1.0587 -2.25207,-2.36467c0,-1.30597 1.00829,-2.36467 2.25207,-2.36467c1.24378,0 2.25206,1.0587 2.25206,2.36467z"/></g><path d="M323.90474,135.4968c0,7.54486 -5.76681,13.66117 -12.88054,13.66117c-7.11372,0 -12.88054,-6.11631 -12.88054,-13.66117c0,-7.54486 5.76681,-13.66117 12.88054,-13.66117c7.11372,0 12.88054,6.11631 12.88054,13.66117z" fill="none" stroke="#000000" stroke-width="2.5"/></g></g></svg>