<svg version="1.1" xmlns="http://www.w3.org/2000/svg" xmlns:xlink="http://www.w3.org/1999/xlink" width="722.43844" height="536.51088" viewBox="0,0,722.43844,536.51088"><g transform="translate(118.4902,90.67314)"><g data-paper-data="{&quot;isPaintingLayer&quot;:true}" fill-rule="nonzero" stroke-linecap="butt" stroke-linejoin="miter" stroke-miterlimit="10" stroke-dasharray="" stroke-dashoffset="0" style="mix-blend-mode: normal"><path d="M-117.4902,444.83773v-527.09009h720.43844v527.09009z" fill="#9966ff" stroke="#000000" stroke-width="2"/><path d="M553.74356,75.4444v-19.41217h2.46198v19.41217z" fill="#9966ff" stroke="#000000" stroke-width="2"/><text transform="translate(161.39335,192.73527) scale(0.92296,0.92296)" font-size="40" xml:space="preserve" fill="#ffffff" fill-rule="nonzero" stroke="none" stroke-width="1" stroke-linecap="butt" stroke-linejoin="miter" stroke-miterlimit="10" stroke-dasharray="" stroke-dashoffset="0" font-family="Marker" font-weight="normal" text-anchor="start" style="mix-blend-mode: normal"><tspan x="0" dy="0">Loading...</tspan></text><path d="M93.82578,-11.09356c0,43.95059 -38.99022,79.57958 -87.08709,79.57958c-48.09687,0 -87.08709,-35.62899 -87.08709,-79.57958c0,-43.95059 38.99022,-79.57958 87.08709,-79.57958c48.09687,0 87.08709,35.62899 87.08709,79.57958z" fill="#e9a5f5" stroke="none" stroke-width="0"/><path d="M554.78675,108.27581c0,51.82852 -42.68757,93.84384 -95.34535,93.84384c-52.65778,0 -95.34535,-42.01532 -95.34535,-93.84384c0,-51.82852 42.68757,-93.84384 95.34535,-93.84384c52.65778,0 95.34535,42.01532 95.34535,93.84384z" fill="#d72cf5" stroke="none" stroke-width="0"/><path d="M69.80176,244.16169c0,38.14579 -27.89817,69.06907 -62.31231,69.06907c-34.41414,0 -62.31231,-30.92328 -62.31231,-69.06907c0,-38.14579 27.89817,-69.06907 62.31231,-69.06907c34.41414,0 62.31231,30.92328 62.31231,69.06907z" fill="#de5ef5" stroke="none" stroke-width="0"/><path d="M541.27323,360.52806c0,37.73117 -45.04042,68.31832 -100.6006,68.31832c-55.56018,0 -100.6006,-30.58715 -100.6006,-68.31832c0,-37.73117 45.04042,-68.31832 100.6006,-68.31832c55.56018,0 100.6006,30.58715 100.6006,68.31832z" fill="#de5ef5" stroke="none" stroke-width="0"/></g></g></svg>